<?xml version="1.0" standalone="no"?>
<!DOCTYPE svg PUBLIC "-//W3C//DTD SVG 20010904//EN"
 "http://www.w3.org/TR/2001/REC-SVG-20010904/DTD/svg10.dtd">
<svg version="1.0" xmlns="http://www.w3.org/2000/svg"
 width="1700.000000pt" height="2200.000000pt" viewBox="0 0 1700.000000 2200.000000"
 preserveAspectRatio="xMidYMid meet">

<g transform="translate(0.000000,2200.000000) scale(0.100000,-0.100000)"
fill="#000000" stroke="none">
<path d="M11850 20655 l0 -435 30 0 30 0 0 435 0 435 -30 0 -30 0 0 -435z"/>
<path d="M10385 21037 c-38 -18 -60 -43 -80 -90 -12 -29 -15 -85 -15 -295 0
-252 1 -260 23 -303 32 -60 74 -83 152 -83 78 0 120 23 152 84 24 45 24 47 21
322 -3 261 -4 278 -24 304 -38 51 -70 68 -137 71 -38 2 -74 -2 -92 -10z m120
-71 c49 -21 55 -55 55 -314 0 -237 -7 -279 -48 -301 -50 -27 -106 -7 -128 44
-18 45 -19 471 -1 525 11 31 38 50 85 59 1 1 18 -5 37 -13z"/>
<path d="M12375 21031 c-40 -24 -60 -49 -74 -90 -15 -45 -15 -511 0 -565 40
-143 266 -152 318 -13 6 15 14 63 17 107 l7 80 -42 0 -41 0 0 -47 c-1 -109
-31 -163 -92 -163 -42 0 -68 17 -84 55 -20 49 -20 481 0 529 23 54 100 66 144
23 19 -20 25 -38 29 -91 l6 -66 40 0 40 0 -7 73 c-9 88 -38 145 -86 169 -47
24 -136 24 -175 -1z"/>
<path d="M12805 21037 c-38 -18 -60 -43 -80 -90 -12 -29 -15 -85 -15 -295 0
-252 1 -260 23 -303 32 -60 74 -83 152 -83 78 0 120 23 152 84 24 45 24 47 21
322 -3 261 -4 278 -24 304 -38 51 -70 68 -137 71 -38 2 -74 -2 -92 -10z m120
-71 c49 -21 55 -55 55 -314 0 -237 -7 -279 -48 -301 -50 -27 -106 -7 -128 44
-18 45 -19 471 -1 525 11 31 38 50 85 59 1 1 18 -5 37 -13z"/>
<path d="M15520 21032 c-98 -48 -108 -233 -18 -333 12 -14 51 -50 86 -79 90
-77 108 -112 104 -203 -4 -68 -93 -101 -147 -54 -20 17 -27 34 -32 80 l-6 57
-40 0 -40 0 7 -61 c12 -119 66 -173 171 -173 103 1 160 50 172 152 12 105 -24
175 -138 268 -92 75 -123 127 -117 195 7 65 32 92 86 92 22 0 45 -4 52 -8 16
-10 40 -69 40 -100 0 -23 4 -25 41 -25 l42 0 -6 51 c-12 102 -71 159 -166 159
-33 0 -70 -7 -91 -18z"/>
<path d="M9040 20655 l0 -385 155 0 155 0 0 40 0 40 -115 0 -115 0 0 140 0
140 95 0 95 0 0 35 0 35 -95 0 -95 0 0 135 0 135 115 0 115 0 0 35 0 35 -155
0 -155 0 0 -385z"/>
<path d="M9432 20713 c3 -318 4 -329 26 -370 29 -55 71 -77 147 -77 74 -1 114
21 147 78 23 40 23 46 26 369 l3 327 -40 0 -41 0 0 -305 c0 -325 -5 -361 -48
-384 -31 -16 -77 -13 -102 7 -32 26 -36 66 -35 390 l0 292 -43 0 -43 0 3 -327z"/>
<path d="M9870 20655 l0 -385 40 0 40 0 0 165 0 165 50 0 c56 0 103 -19 115
-47 4 -10 11 -76 14 -148 l6 -130 40 -3 40 -3 -3 128 c-3 147 -18 204 -62 229
l-28 17 38 36 c43 41 55 89 48 194 -5 76 -23 114 -67 144 -31 21 -46 23 -152
23 l-119 0 0 -385z m210 302 c36 -18 53 -77 46 -161 -7 -92 -23 -109 -111
-114 l-65 -4 0 146 0 146 53 0 c28 0 63 -6 77 -13z"/>
<path d="M10730 20655 l0 -385 40 0 40 0 0 154 0 154 79 3 c89 5 121 21 156
80 17 29 20 52 20 149 0 99 -3 121 -22 156 -32 61 -68 74 -202 74 l-111 0 0
-385z m231 286 c16 -19 19 -41 19 -126 0 -57 -3 -111 -6 -120 -10 -25 -59 -45
-114 -45 l-50 0 0 161 0 161 66 -4 c55 -3 70 -8 85 -27z"/>
<path d="M11150 20655 l0 -385 155 0 155 0 0 40 0 40 -115 0 -115 0 0 140 0
140 95 0 95 0 0 35 0 35 -95 0 -95 0 0 135 0 135 115 0 115 0 0 35 0 35 -155
0 -155 0 0 -385z"/>
<path d="M13142 20713 c3 -318 4 -329 26 -370 29 -55 71 -77 147 -77 74 -1
114 21 147 78 23 40 23 46 26 369 l3 327 -40 0 -41 0 0 -305 c0 -325 -5 -361
-48 -384 -31 -16 -77 -13 -102 7 -32 26 -36 66 -35 390 l0 292 -43 0 -43 0 3
-327z"/>
<path d="M13570 20655 l0 -385 40 0 40 0 2 308 3 307 37 -115 c20 -63 64 -202
98 -307 l61 -193 44 0 45 0 0 385 0 385 -40 0 -40 0 -2 -269 -3 -269 -85 269
-85 269 -57 0 -58 0 0 -385z"/>
<path d="M14010 21005 l0 -35 70 0 70 0 0 -350 0 -350 40 0 40 0 0 350 0 350
75 0 75 0 0 35 0 35 -185 0 -185 0 0 -35z"/>
<path d="M14440 20655 l0 -385 40 0 40 0 0 165 0 165 50 0 c56 0 103 -19 115
-47 4 -10 11 -76 14 -148 l6 -130 40 -3 40 -3 -3 128 c-3 147 -18 204 -62 229
l-28 17 38 36 c43 41 55 89 48 194 -5 76 -23 114 -67 144 -31 21 -46 23 -152
23 l-119 0 0 -385z m210 302 c36 -18 53 -77 46 -161 -7 -92 -23 -109 -111
-114 l-65 -4 0 146 0 146 53 0 c28 0 63 -6 77 -13z"/>
<path d="M14880 20655 l0 -385 40 0 40 0 0 385 0 385 -40 0 -40 0 0 -385z"/>
<path d="M15050 20655 l0 -385 155 0 155 0 0 40 0 40 -115 0 -115 0 0 140 0
140 95 0 95 0 0 35 0 35 -95 0 -95 0 0 135 0 135 115 0 115 0 0 35 0 35 -155
0 -155 0 0 -385z"/>
<path d="M7659 883 c-4 -24 -4 -131 0 -127 6 5 9 134 4 134 -2 0 -4 -3 -4 -7z"/>
<path d="M7473 845 c0 -8 4 -12 9 -9 5 3 6 10 3 15 -9 13 -12 11 -12 -6z"/>
<path d="M7540 855 c0 -5 5 -17 10 -25 5 -8 10 -10 10 -5 0 6 -5 17 -10 25 -5
8 -10 11 -10 5z"/>
<path d="M7992 840 c0 -14 2 -19 5 -12 2 6 2 18 0 25 -3 6 -5 1 -5 -13z"/>
<path d="M8581 844 c0 -11 3 -14 6 -6 3 7 2 16 -1 19 -3 4 -6 -2 -5 -13z"/>
<path d="M8970 856 c0 -2 8 -10 18 -17 15 -13 16 -12 3 4 -13 16 -21 21 -21
13z"/>
<path d="M9103 848 c-20 -27 -23 -37 -11 -44 7 -4 10 -3 5 1 -4 5 0 19 8 32
16 24 14 32 -2 11z"/>
<path d="M9172 790 c0 -38 3 -72 6 -74 8 -5 7 132 -1 140 -2 3 -5 -27 -5 -66z"/>
<path d="M9309 848 c-4 -51 -4 -80 1 -83 3 -2 6 19 7 46 0 27 -1 49 -3 49 -2
0 -4 -6 -5 -12z"/>
<path d="M9579 843 c-13 -16 -12 -17 4 -4 16 13 21 21 13 21 -2 0 -10 -8 -17
-17z"/>
<path d="M8900 841 c0 -6 4 -13 10 -16 6 -3 7 1 4 9 -7 18 -14 21 -14 7z"/>
<path d="M8835 821 c-3 -5 0 -13 6 -16 5 -4 8 -13 5 -21 -3 -7 -2 -15 2 -18 4
-3 8 11 9 30 1 33 -9 44 -22 25z"/>
<path d="M7716 811 c-3 -5 3 -20 15 -32 l20 -24 -15 26 c-9 14 -13 29 -9 32 3
4 4 7 0 7 -3 0 -8 -4 -11 -9z"/>
<path d="M8191 804 c0 -12 7 -28 17 -35 15 -12 16 -12 6 1 -7 8 -14 24 -17 35
-4 19 -5 19 -6 -1z"/>
<path d="M8396 812 c-2 -4 -1 -14 4 -22 7 -11 9 -9 7 8 -1 24 -3 26 -11 14z"/>
<path d="M8468 813 c7 -3 16 -2 19 1 4 3 -2 6 -13 5 -11 0 -14 -3 -6 -6z"/>
<path d="M7991 794 c0 -11 3 -14 6 -6 3 7 2 16 -1 19 -3 4 -6 -2 -5 -13z"/>
<path d="M8782 797 c-8 -9 -8 -17 0 -27 8 -13 9 -12 5 1 -3 9 0 22 6 28 6 6 8
11 5 11 -3 0 -10 -6 -16 -13z"/>
<path d="M8976 772 l-19 -27 24 22 c12 12 21 24 18 27 -2 2 -13 -8 -23 -22z"/>
<path d="M8581 774 c0 -11 3 -14 6 -6 3 7 2 16 -1 19 -3 4 -6 -2 -5 -13z"/>
<path d="M8903 775 c0 -8 4 -12 9 -9 4 3 8 9 8 15 0 5 -4 9 -8 9 -5 0 -9 -7
-9 -15z"/>
<path d="M9096 777 c3 -10 9 -15 12 -12 3 3 0 11 -7 18 -10 9 -11 8 -5 -6z"/>
<path d="M9421 776 c-9 -10 -9 -16 -1 -21 6 -4 14 -4 17 -1 4 3 1 6 -7 6 -10
0 -10 3 0 15 7 8 10 15 7 15 -2 0 -10 -6 -16 -14z"/>
<path d="M7350 766 c0 -2 7 -7 16 -10 8 -3 12 -2 9 4 -6 10 -25 14 -25 6z"/>
<path d="M9516 762 c-3 -5 1 -9 9 -9 8 0 12 4 9 9 -3 4 -7 8 -9 8 -2 0 -6 -4
-9 -8z"/>
</g>
</svg>
